<svg id="svg" version="1.1" width="641" height="500" xmlns="http://www.w3.org/2000/svg" xmlns:xlink="http://www.w3.org/1999/xlink" style="display: block;"><g id="svgg"><path id="path0" d="M0.000 156.006 L 0.000 312.012 200.000 312.012 L 400.000 312.012 400.000 156.006 L 400.000 0.000 200.000 0.000 L 0.000 0.000 0.000 156.006 M220.905 16.848 C 240.796 19.997,248.491 21.615,252.106 23.410 C 253.651 24.176,256.599 25.423,258.658 26.180 C 262.974 27.766,264.613 28.524,270.203 31.517 C 272.434 32.712,274.588 33.691,274.991 33.693 C 275.394 33.696,276.945 34.610,278.438 35.725 C 279.931 36.841,282.830 38.870,284.882 40.234 C 286.933 41.598,290.011 43.914,291.721 45.382 C 293.431 46.849,295.174 48.050,295.595 48.050 C 296.015 48.050,297.143 49.035,298.101 50.240 C 299.060 51.444,301.180 53.339,302.812 54.452 C 304.445 55.564,305.936 56.960,306.126 57.553 C 306.317 58.147,307.247 59.090,308.193 59.649 C 309.139 60.208,310.837 62.018,311.965 63.671 C 313.092 65.324,314.712 67.329,315.564 68.127 C 316.416 68.926,317.469 70.421,317.903 71.451 C 318.337 72.480,319.506 74.197,320.501 75.265 C 322.484 77.395,324.661 80.856,326.147 84.243 C 326.674 85.445,327.756 87.129,328.552 87.988 C 329.815 89.350,335.101 100.704,335.101 102.055 C 335.101 102.329,335.475 102.997,335.932 103.539 C 337.098 104.923,338.559 109.199,340.106 115.757 C 340.834 118.846,341.797 121.941,342.244 122.636 C 346.692 129.540,346.495 178.668,341.976 189.704 C 341.343 191.248,340.338 194.758,339.743 197.504 C 337.981 205.627,330.821 220.365,327.516 222.675 C 322.335 226.294,316.842 222.431,320.118 217.473 C 320.798 216.443,321.633 215.179,321.972 214.665 C 322.971 213.151,324.935 208.450,326.634 203.508 C 327.505 200.976,328.468 198.589,328.776 198.204 C 332.356 193.718,336.540 162.317,335.101 150.734 C 334.758 147.971,334.213 142.059,333.890 137.598 C 333.517 132.434,332.731 127.443,331.728 123.869 C 330.861 120.780,330.142 117.691,330.129 117.005 C 330.116 116.318,329.123 113.807,327.923 111.424 C 326.723 109.041,325.741 106.623,325.741 106.050 C 325.741 104.609,322.180 96.889,320.447 94.573 C 319.663 93.525,318.832 92.042,318.600 91.278 C 318.367 90.513,317.282 88.778,316.187 87.421 C 315.092 86.065,313.214 83.200,312.012 81.055 C 309.286 76.186,307.241 73.926,294.572 61.778 C 286.557 54.093,278.517 47.721,274.709 46.037 C 273.219 45.378,271.852 44.451,271.671 43.978 C 271.489 43.505,270.312 42.783,269.056 42.373 C 267.799 41.963,266.101 41.107,265.282 40.471 C 264.464 39.834,262.987 39.314,262.000 39.314 C 260.978 39.314,259.746 38.776,259.138 38.066 C 258.550 37.379,257.745 36.817,257.348 36.817 C 256.952 36.817,256.277 36.396,255.850 35.881 C 255.423 35.367,254.518 34.945,253.840 34.945 C 253.162 34.945,251.722 34.553,250.640 34.073 C 249.559 33.592,247.551 32.916,246.178 32.569 C 239.819 30.961,236.208 29.859,235.571 29.331 C 234.908 28.780,231.969 28.289,220.281 26.774 C 213.114 25.846,189.913 26.411,185.335 27.626 C 183.448 28.127,179.938 28.880,177.535 29.300 C 175.133 29.720,171.989 30.595,170.550 31.243 C 169.111 31.892,165.601 33.019,162.750 33.749 C 159.899 34.478,156.022 35.876,154.134 36.855 C 152.246 37.834,148.596 39.635,146.022 40.856 C 143.448 42.078,139.376 44.459,136.973 46.149 C 134.571 47.838,132.303 49.238,131.934 49.259 C 131.565 49.280,130.582 50.034,129.750 50.933 C 128.918 51.832,127.114 53.266,125.741 54.120 C 123.119 55.751,122.309 56.490,113.261 65.498 C 105.513 73.212,102.973 76.124,102.041 78.364 C 101.602 79.420,100.404 81.245,99.379 82.420 C 98.354 83.594,96.920 85.730,96.193 87.165 C 95.465 88.601,94.585 89.951,94.237 90.166 C 93.889 90.381,93.604 91.091,93.604 91.744 C 93.604 92.397,93.052 93.445,92.379 94.073 C 91.705 94.700,90.693 96.326,90.130 97.685 C 89.567 99.044,88.574 101.334,87.923 102.774 C 87.272 104.214,86.739 105.790,86.739 106.278 C 86.739 106.765,86.172 107.885,85.479 108.766 C 82.941 111.993,79.922 123.858,79.888 130.738 C 79.880 132.188,79.219 134.471,78.315 136.170 L 76.755 139.100 76.755 157.813 C 76.755 169.615,76.986 176.668,77.379 176.911 C 77.722 177.123,78.003 178.088,78.003 179.056 C 78.003 180.023,78.424 181.164,78.939 181.591 C 79.510 182.065,79.875 183.433,79.875 185.100 C 79.875 186.602,80.156 187.832,80.499 187.832 C 80.842 187.832,81.123 189.079,81.123 190.603 C 81.123 192.127,81.404 193.548,81.747 193.760 C 82.090 193.972,82.371 194.941,82.371 195.914 C 82.371 196.910,82.780 197.839,83.307 198.042 C 83.822 198.239,84.243 198.998,84.243 199.728 C 84.243 200.458,84.810 201.851,85.503 202.825 C 86.196 203.798,87.479 206.509,88.355 208.849 C 89.230 211.190,90.629 214.278,91.463 215.712 C 95.065 221.904,91.681 225.742,84.983 223.062 C 82.732 222.162,80.499 219.159,80.499 217.033 C 80.499 216.642,80.106 215.880,79.627 215.338 C 78.020 213.525,76.210 209.790,75.768 207.379 C 75.527 206.066,74.949 204.438,74.482 203.761 C 74.016 203.084,73.635 201.984,73.635 201.316 C 73.635 200.648,72.788 198.601,71.753 196.767 C 70.373 194.322,69.707 192.062,69.253 188.292 C 68.913 185.465,68.285 180.905,67.858 178.159 C 67.358 174.942,67.083 165.957,67.083 152.886 C 67.083 130.674,66.857 132.492,71.468 117.629 C 72.639 113.853,74.166 108.844,74.861 106.497 C 75.556 104.150,76.688 101.439,77.376 100.473 C 78.064 99.506,78.627 98.554,78.627 98.357 C 78.627 97.298,83.117 88.653,84.499 87.051 C 85.387 86.022,86.114 84.833,86.115 84.409 C 86.116 83.235,89.803 77.341,92.074 74.883 C 93.184 73.682,94.261 72.132,94.468 71.439 C 94.809 70.298,97.032 67.706,102.816 61.707 C 106.358 58.033,106.964 57.426,109.457 55.051 C 110.798 53.775,113.044 51.576,114.449 50.166 C 115.855 48.755,117.992 47.018,119.199 46.304 C 120.407 45.591,122.070 44.288,122.896 43.409 C 123.723 42.529,124.664 41.810,124.988 41.810 C 125.312 41.810,127.861 40.208,130.651 38.251 C 133.442 36.294,137.410 33.880,139.470 32.887 C 141.529 31.894,143.635 30.723,144.150 30.285 C 144.665 29.848,147.473 28.576,150.390 27.458 C 153.307 26.341,157.520 24.600,159.750 23.589 C 161.981 22.579,165.070 21.491,166.615 21.173 C 176.080 19.220,185.230 17.507,193.136 16.207 C 197.331 15.517,215.086 15.927,220.905 16.848 M209.105 62.250 C 211.204 63.664,210.519 63.002,237.835 90.028 C 250.751 102.806,261.912 114.243,262.638 115.445 C 267.130 122.877,258.748 132.242,250.766 128.710 C 247.787 127.393,247.022 126.696,227.594 107.644 C 220.245 100.437,213.557 93.946,212.732 93.219 C 211.183 91.855,207.152 87.837,205.506 86.015 C 204.990 85.445,203.150 83.479,201.417 81.647 C 191.764 71.443,193.233 61.258,204.368 61.182 C 206.333 61.169,208.087 61.564,209.105 62.250 M196.602 84.597 C 197.048 85.134,198.276 86.016,199.331 86.557 C 201.411 87.625,212.341 98.201,235.630 121.685 C 240.472 126.567,240.223 130.619,234.747 136.051 C 223.606 147.103,223.278 147.801,226.765 153.055 C 228.599 155.817,229.017 157.027,229.017 159.565 C 229.017 163.051,231.274 166.912,234.465 168.888 C 235.416 169.476,237.317 171.024,238.690 172.329 C 240.062 173.633,244.555 177.694,248.674 181.355 C 255.612 187.521,270.431 201.643,283.463 214.509 C 291.736 222.676,290.906 224.025,277.611 224.025 C 269.168 224.025,266.071 223.154,264.390 220.308 C 263.803 219.314,262.380 217.918,261.230 217.207 C 260.079 216.496,258.399 214.798,257.496 213.435 C 256.594 212.071,255.010 210.518,253.977 209.984 C 252.944 209.450,251.388 207.887,250.519 206.510 C 249.651 205.134,248.318 203.765,247.559 203.469 C 246.799 203.172,245.757 202.271,245.242 201.465 C 244.727 200.659,242.853 198.456,241.077 196.568 C 233.547 188.562,231.178 185.969,226.400 180.497 C 220.452 173.686,218.363 172.231,214.535 172.231 C 212.658 172.231,210.467 171.593,207.845 170.283 C 202.942 167.832,202.968 167.820,193.975 176.755 C 185.376 185.299,183.453 185.495,176.574 178.531 C 175.016 176.954,173.050 175.076,172.206 174.359 C 171.362 173.641,169.608 171.956,168.310 170.614 C 165.127 167.326,163.527 165.731,161.343 163.670 C 160.332 162.715,158.928 161.318,158.223 160.564 C 157.519 159.810,155.829 158.125,154.469 156.820 C 153.108 155.514,151.283 153.654,150.413 152.685 C 149.542 151.716,147.271 149.275,145.366 147.260 C 137.581 139.026,136.727 140.391,171.044 106.241 C 193.523 83.872,194.978 82.640,196.602 84.597 M128.362 138.781 C 128.637 139.260,130.027 140.256,131.451 140.995 C 133.593 142.106,143.329 151.115,155.241 163.008 C 156.520 164.284,158.081 165.829,158.711 166.440 C 183.546 190.554,184.970 192.291,185.004 198.514 C 185.032 203.574,178.475 209.182,174.819 207.225 C 174.127 206.855,173.026 206.552,172.372 206.552 C 170.145 206.552,159.091 196.281,141.625 177.982 C 140.407 176.706,138.802 175.101,138.058 174.415 C 134.434 171.072,123.577 159.705,121.370 156.942 C 119.999 155.226,118.684 153.676,118.448 153.497 C 117.577 152.838,116.693 149.609,116.693 147.087 C 116.693 142.234,126.387 135.334,128.362 138.781 M330.056 234.390 C 332.659 235.630,335.386 236.873,336.114 237.153 C 336.843 237.433,338.808 239.438,340.482 241.608 L 343.526 245.554 343.526 250.637 C 343.526 254.760,343.301 255.968,342.337 257.033 L 341.148 258.346 207.049 258.346 C 59.640 258.346,70.417 258.636,68.341 254.623 C 66.595 251.246,67.465 248.393,72.468 241.087 C 74.893 237.546,76.647 236.266,80.811 235.000 C 82.871 234.374,85.257 233.630,86.115 233.347 C 86.973 233.063,88.237 232.708,88.924 232.557 C 89.610 232.406,143.081 232.249,207.747 232.210 L 325.322 232.137 330.056 234.390 M373.592 270.712 C 375.714 271.850,378.162 273.714,379.032 274.855 C 379.902 275.997,381.416 277.733,382.396 278.715 C 383.438 279.758,384.777 282.313,385.620 284.867 C 386.413 287.270,387.457 290.088,387.941 291.130 C 388.544 292.430,388.763 294.779,388.638 298.618 L 388.456 304.212 206.751 304.369 C 25.153 304.526,25.046 304.526,24.647 303.271 C 22.632 296.921,26.893 281.523,32.139 276.199 C 40.349 267.867,23.039 268.551,224.337 268.604 L 369.735 268.643 373.592 270.712 " stroke="none" fill="#ffffff" fill-rule="evenodd"></path><path id="path1" d="M189.704 19.447 C 188.846 19.803,185.616 20.476,182.527 20.943 C 171.187 22.656,168.897 23.114,168.022 23.840 C 166.902 24.769,161.111 26.833,159.623 26.833 C 159.011 26.833,154.648 28.687,149.926 30.954 C 145.205 33.220,140.289 35.497,139.002 36.014 C 137.715 36.530,136.661 37.199,136.661 37.499 C 136.661 37.799,135.328 38.733,133.697 39.575 C 132.067 40.417,129.629 42.107,128.280 43.330 C 126.930 44.553,125.599 45.554,125.321 45.554 C 122.686 45.554,99.220 68.049,99.220 70.575 C 99.220 70.910,97.956 72.503,96.412 74.115 C 94.867 75.727,93.604 77.535,93.604 78.134 C 93.604 78.733,92.891 79.689,92.020 80.260 C 90.759 81.086,85.491 90.539,85.491 91.974 C 85.491 92.149,84.783 93.055,83.918 93.989 C 83.053 94.923,81.899 97.254,81.353 99.169 C 80.807 101.085,80.111 102.919,79.806 103.245 C 79.501 103.571,79.251 104.242,79.251 104.736 C 79.251 105.230,78.815 105.954,78.281 106.344 C 77.297 107.063,77.004 107.943,75.146 115.757 C 74.574 118.159,73.876 120.686,73.593 121.373 C 73.311 122.059,72.896 124.446,72.670 126.677 C 72.444 128.908,71.910 131.576,71.483 132.605 C 69.911 136.395,69.413 138.973,69.190 144.462 C 68.495 161.556,69.545 177.776,71.532 180.638 C 72.002 181.315,72.387 183.025,72.387 184.438 C 72.387 185.850,73.131 189.368,74.041 192.255 C 74.950 195.142,75.735 198.066,75.785 198.752 C 75.952 201.046,76.908 203.732,78.007 204.992 C 78.606 205.679,79.927 208.514,80.943 211.294 C 83.228 217.543,85.747 220.905,88.144 220.905 C 90.169 220.905,90.249 220.384,88.700 217.292 C 88.062 216.018,87.360 214.226,87.140 213.309 C 86.920 212.391,86.029 210.796,85.160 209.763 C 84.291 208.730,83.001 205.971,82.294 203.631 C 81.586 201.291,80.612 198.491,80.129 197.410 C 79.646 196.328,79.251 194.467,79.251 193.274 C 79.251 192.081,78.865 190.784,78.394 190.393 C 77.923 190.002,77.343 188.219,77.106 186.432 C 76.869 184.645,76.418 182.874,76.105 182.496 C 73.530 179.394,73.523 131.412,76.096 128.270 C 76.393 127.909,76.832 126.017,77.074 124.066 C 77.336 121.944,77.862 120.385,78.382 120.186 C 78.860 120.002,79.251 119.147,79.251 118.285 C 79.251 117.423,79.650 115.659,80.138 114.365 C 80.626 113.071,81.632 109.978,82.374 107.491 C 83.115 105.004,84.079 102.757,84.517 102.498 C 84.954 102.240,85.794 100.905,86.384 99.532 C 86.974 98.159,87.977 95.913,88.612 94.540 C 89.247 93.167,90.094 91.151,90.494 90.060 C 90.895 88.970,91.625 87.923,92.117 87.734 C 92.610 87.545,93.545 86.149,94.195 84.633 C 94.845 83.116,96.101 81.075,96.988 80.095 C 97.874 79.116,99.494 76.940,100.589 75.260 C 101.683 73.579,104.233 70.490,106.256 68.395 C 115.101 59.234,118.179 56.162,118.516 56.162 C 118.714 56.161,120.308 54.788,122.058 53.109 C 125.215 50.080,128.744 47.579,132.892 45.427 C 134.080 44.811,135.294 43.872,135.591 43.342 C 135.888 42.811,137.679 41.692,139.570 40.856 C 141.460 40.020,143.848 38.628,144.875 37.764 C 145.901 36.900,147.029 36.193,147.379 36.193 C 147.730 36.193,148.902 35.786,149.984 35.288 C 153.488 33.675,158.786 31.826,159.906 31.826 C 160.507 31.825,161.599 31.225,162.333 30.491 C 163.133 29.691,164.763 29.033,166.403 28.848 C 167.908 28.678,169.290 28.296,169.474 27.998 C 169.658 27.701,170.845 27.445,172.112 27.430 C 173.379 27.415,175.538 26.989,176.911 26.483 C 178.284 25.978,181.232 25.387,183.463 25.170 C 185.694 24.954,188.073 24.397,188.750 23.933 C 190.562 22.691,218.953 22.720,221.747 23.966 C 222.828 24.449,225.607 25.000,227.922 25.190 C 230.236 25.381,232.710 25.848,233.419 26.227 C 234.128 26.607,236.587 27.154,238.883 27.442 C 244.128 28.102,248.487 29.270,249.298 30.232 C 249.641 30.639,251.466 31.464,253.354 32.065 C 259.211 33.932,266.459 36.949,266.459 37.521 C 266.459 37.820,266.745 38.066,267.095 38.066 C 267.445 38.066,268.826 38.756,270.163 39.601 C 271.501 40.445,273.290 41.310,274.139 41.523 C 274.988 41.736,276.468 42.730,277.427 43.732 C 278.387 44.734,279.503 45.554,279.906 45.554 C 280.582 45.554,281.719 46.368,287.594 51.053 C 292.458 54.932,295.221 57.499,301.840 64.285 C 309.052 71.681,313.244 76.603,313.255 77.691 C 313.259 78.034,314.243 79.418,315.443 80.767 C 316.643 82.115,318.223 84.453,318.954 85.963 C 319.685 87.472,320.893 89.318,321.640 90.063 C 322.387 90.809,323.925 93.666,325.059 96.412 C 326.192 99.158,327.952 103.115,328.970 105.206 C 329.988 107.297,331.064 109.965,331.361 111.134 C 331.658 112.304,332.503 115.367,333.238 117.941 C 333.973 120.515,334.727 123.744,334.914 125.117 C 335.100 126.490,335.568 127.812,335.952 128.055 C 336.336 128.298,337.012 131.949,337.453 136.167 C 337.894 140.386,338.549 146.604,338.909 149.985 C 339.374 154.367,339.363 157.863,338.871 162.154 C 338.490 165.465,337.825 171.666,337.392 175.933 C 336.897 180.806,336.325 183.783,335.853 183.941 C 335.440 184.079,335.101 185.169,335.101 186.364 C 335.101 187.560,334.783 189.132,334.395 189.858 C 334.006 190.584,333.291 192.742,332.807 194.653 C 332.322 196.564,331.646 199.223,331.305 200.562 C 330.964 201.900,330.134 203.769,329.461 204.714 C 328.788 205.659,328.237 206.758,328.237 207.155 C 328.237 207.553,327.579 209.334,326.774 211.115 C 323.001 219.467,322.670 220.905,324.521 220.905 C 325.609 220.905,329.452 216.228,330.162 214.041 C 330.551 212.839,331.353 211.010,331.943 209.974 C 332.532 208.939,333.210 207.116,333.449 205.923 C 333.988 203.228,335.250 200.312,335.878 200.312 C 336.137 200.312,336.349 199.767,336.349 199.101 C 336.349 198.435,336.597 197.736,336.901 197.549 C 337.204 197.362,337.651 195.615,337.894 193.668 C 338.137 191.720,338.580 189.680,338.878 189.135 C 342.173 183.099,343.650 135.973,340.766 128.861 C 340.127 127.285,338.949 122.836,338.206 119.189 C 337.451 115.483,336.194 111.466,335.669 111.076 C 335.123 110.672,333.229 105.072,333.229 103.863 C 333.229 102.483,328.945 94.228,328.229 94.228 C 327.890 94.228,327.613 93.820,327.613 93.321 C 327.613 92.116,322.764 82.861,321.697 82.031 C 321.236 81.672,319.827 79.618,318.567 77.467 C 317.306 75.315,315.865 73.398,315.365 73.206 C 314.865 73.014,313.930 71.826,313.287 70.567 C 311.812 67.676,293.469 49.741,288.854 46.678 C 286.952 45.416,285.029 43.940,284.580 43.399 C 284.130 42.858,282.326 41.697,280.571 40.819 C 278.815 39.942,276.677 38.569,275.819 37.768 C 274.961 36.968,272.925 35.724,271.295 35.005 C 269.665 34.286,267.070 33.136,265.529 32.449 C 263.989 31.763,262.320 31.201,261.822 31.201 C 261.324 31.201,260.741 30.918,260.528 30.573 C 259.844 29.467,255.056 27.406,250.280 26.163 C 247.732 25.499,245.186 24.539,244.623 24.029 C 244.060 23.520,241.933 22.838,239.896 22.514 C 237.860 22.190,233.526 21.504,230.265 20.988 C 227.005 20.473,222.824 19.751,220.976 19.386 C 216.669 18.534,191.788 18.583,189.704 19.447 M202.496 64.275 C 202.284 64.618,201.609 64.899,200.996 64.899 C 197.661 64.899,196.494 71.900,199.337 74.859 C 200.173 75.730,206.983 82.571,214.469 90.062 C 221.956 97.552,228.362 103.971,228.705 104.326 C 229.328 104.970,232.739 108.309,236.088 111.550 C 237.060 112.491,238.128 113.541,238.461 113.885 C 242.664 118.209,247.804 122.938,249.298 123.854 C 250.328 124.485,251.395 125.378,251.669 125.839 C 252.731 127.623,256.045 126.796,258.190 124.212 C 260.856 121.001,260.788 119.084,257.854 114.821 C 255.423 111.285,216.310 71.766,211.856 68.344 C 206.600 64.305,203.350 62.892,202.496 64.275 M192.431 88.920 C 191.014 89.769,189.707 91.028,189.527 91.717 C 189.347 92.406,188.400 93.435,187.423 94.005 C 186.447 94.575,184.581 96.415,183.277 98.094 C 181.973 99.773,180.235 101.402,179.414 101.713 C 178.594 102.025,177.585 102.926,177.171 103.714 C 176.438 105.111,166.686 115.059,165.593 115.524 C 165.292 115.652,164.093 116.973,162.929 118.459 C 161.766 119.946,159.732 121.845,158.410 122.679 C 157.088 123.514,156.006 124.557,156.006 124.996 C 156.006 125.436,154.480 127.048,152.615 128.577 C 150.750 130.106,148.909 132.059,148.524 132.917 C 148.139 133.775,146.927 135.043,145.831 135.734 C 142.695 137.711,142.785 140.017,146.125 143.258 C 147.613 144.702,149.483 146.757,150.281 147.825 C 151.080 148.892,152.114 149.766,152.580 149.766 C 153.046 149.766,154.221 150.948,155.192 152.392 C 156.162 153.837,158.019 155.741,159.320 156.624 C 160.620 157.507,162.025 158.915,162.443 159.753 C 162.860 160.591,164.391 162.074,165.844 163.051 C 167.298 164.027,168.487 165.199,168.487 165.655 C 168.487 166.112,169.540 167.345,170.827 168.395 C 172.114 169.445,173.729 170.888,174.415 171.600 C 178.506 175.847,180.044 177.223,180.701 177.223 C 181.106 177.223,181.788 177.644,182.215 178.159 C 184.475 180.882,188.689 178.604,195.853 170.786 C 199.835 166.440,205.766 165.147,209.227 167.870 C 210.929 169.208,215.787 170.359,219.734 170.359 C 221.848 170.359,222.322 170.651,223.671 172.788 C 224.514 174.124,226.066 175.831,227.120 176.581 C 228.174 177.332,229.487 178.817,230.038 179.883 C 231.117 181.971,232.124 183.118,242.122 193.649 C 249.851 201.792,250.933 202.872,260.359 211.856 C 270.980 221.980,271.260 222.153,277.046 222.153 C 284.636 222.153,286.164 220.434,281.772 216.835 C 280.241 215.581,278.821 214.028,278.617 213.383 C 278.412 212.739,276.890 211.334,275.234 210.261 C 273.578 209.188,271.922 207.649,271.553 206.840 C 271.185 206.032,270.099 204.890,269.139 204.303 C 268.180 203.715,265.962 201.805,264.211 200.057 C 262.460 198.310,260.214 196.154,259.219 195.266 C 258.224 194.378,256.783 192.974,256.016 192.146 C 255.250 191.317,252.917 189.095,250.834 187.207 C 248.750 185.320,245.897 182.652,244.494 181.279 C 243.091 179.906,240.731 177.800,239.250 176.599 C 225.871 165.752,225.279 165.044,225.275 159.895 C 225.274 157.440,224.799 155.717,223.401 153.098 C 220.211 147.120,220.713 145.856,229.937 136.668 C 238.476 128.162,238.632 128.708,223.401 113.825 C 220.484 110.975,213.885 104.500,208.736 99.438 C 201.052 91.882,195.926 87.333,195.136 87.369 C 195.066 87.373,193.848 88.070,192.431 88.920 M121.469 143.868 C 118.240 147.003,119.314 150.564,125.361 156.776 C 126.943 158.401,129.220 160.743,130.421 161.982 C 133.220 164.867,131.441 163.090,149.766 181.308 C 158.518 190.009,166.802 198.250,168.175 199.622 C 179.205 210.643,188.103 201.408,177.732 189.704 C 174.087 185.590,174.893 186.398,165.769 177.713 C 161.701 173.840,155.896 168.191,152.871 165.161 C 149.845 162.130,147.030 159.322,146.615 158.921 C 146.201 158.519,142.770 155.151,138.991 151.435 C 128.289 140.913,125.674 139.784,121.469 143.868 " stroke="none" fill="#261100" fill-rule="evenodd"></path><path id="path2" d="M192.512 17.538 C 177.407 19.491,163.650 22.289,161.864 23.772 C 161.309 24.232,158.172 25.532,154.893 26.660 C 151.614 27.787,147.645 29.480,146.073 30.422 C 144.500 31.364,141.943 32.696,140.389 33.384 C 136.651 35.038,132.917 37.402,132.917 38.116 C 132.917 38.432,132.603 38.690,132.218 38.690 C 131.229 38.690,126.587 41.654,122.688 44.774 C 120.866 46.232,119.126 47.426,118.822 47.426 C 118.317 47.426,116.107 49.486,109.654 55.975 C 108.357 57.279,106.699 58.908,105.970 59.594 C 101.711 63.603,95.476 70.662,95.476 71.474 C 95.476 71.927,94.463 73.371,93.226 74.683 C 91.988 75.994,90.448 78.101,89.802 79.365 C 89.157 80.629,88.366 81.825,88.044 82.024 C 87.723 82.223,87.289 83.164,87.080 84.115 C 86.871 85.066,85.976 86.678,85.092 87.696 C 83.445 89.593,80.224 96.054,79.513 98.885 C 79.295 99.756,78.910 100.468,78.658 100.468 C 77.957 100.468,76.339 104.106,75.189 108.268 C 74.620 110.328,73.756 113.071,73.271 114.365 C 72.785 115.659,72.378 117.344,72.367 118.109 C 72.356 118.875,71.955 120.018,71.476 120.650 C 70.997 121.283,70.412 122.968,70.175 124.395 C 69.939 125.822,69.444 127.551,69.075 128.237 C 68.254 129.766,66.811 168.892,67.510 170.671 C 67.780 171.357,68.286 174.236,68.634 177.067 C 70.374 191.229,70.616 192.435,72.419 196.008 C 73.431 198.013,74.259 200.160,74.259 200.779 C 74.259 201.399,74.640 202.460,75.106 203.137 C 75.573 203.814,76.143 205.402,76.375 206.666 C 76.799 208.982,79.485 214.350,80.549 215.008 C 80.865 215.203,81.123 215.891,81.123 216.538 C 81.123 218.609,83.643 222.138,85.400 222.527 C 86.308 222.728,87.557 223.031,88.174 223.199 C 90.805 223.915,93.890 219.431,91.698 218.076 C 90.889 217.576,88.265 211.733,87.705 209.184 C 87.479 208.154,86.467 206.007,85.457 204.414 C 84.446 202.820,83.619 201.219,83.619 200.855 C 83.619 200.490,83.234 199.447,82.763 198.536 C 81.436 195.969,80.499 192.620,80.499 190.439 C 80.499 189.022,80.209 188.456,79.482 188.456 C 78.646 188.456,78.521 187.957,78.780 185.659 C 78.998 183.727,78.830 182.643,78.237 182.151 C 77.765 181.759,77.379 180.687,77.379 179.768 C 77.379 178.849,77.070 177.788,76.692 177.410 C 75.182 175.900,75.619 139.256,77.185 136.037 C 78.019 134.324,78.816 130.919,79.228 127.301 C 80.162 119.117,82.004 112.923,85.166 107.332 C 85.651 106.474,87.062 103.250,88.301 100.167 C 89.539 97.084,90.930 94.135,91.390 93.615 C 91.851 93.094,93.260 90.702,94.522 88.300 C 95.784 85.897,97.471 83.229,98.272 82.371 C 99.073 81.513,100.622 79.281,101.715 77.411 C 103.821 73.807,103.991 73.610,111.662 65.835 C 118.274 59.132,121.567 56.087,124.181 54.258 C 125.382 53.418,127.552 51.677,129.003 50.390 C 130.454 49.103,131.910 48.050,132.239 48.050 C 132.568 48.050,134.610 46.787,136.777 45.243 C 141.089 42.172,157.816 33.700,159.584 33.693 C 161.136 33.686,167.983 31.550,170.127 30.404 C 171.112 29.877,173.463 29.156,175.351 28.802 C 177.239 28.447,181.872 27.531,185.647 26.766 C 193.370 25.201,216.940 24.832,223.089 26.179 C 224.805 26.555,228.315 27.153,230.889 27.507 C 233.463 27.861,235.836 28.416,236.162 28.740 C 236.488 29.064,237.534 29.329,238.486 29.329 C 239.437 29.329,241.417 29.872,242.885 30.535 C 246.555 32.193,247.932 32.664,248.744 32.540 C 249.126 32.482,250.249 32.857,251.240 33.374 C 252.231 33.891,253.640 34.315,254.370 34.318 C 255.100 34.320,256.047 34.743,256.474 35.257 C 256.902 35.772,257.647 36.193,258.130 36.193 C 258.614 36.193,259.158 36.582,259.340 37.056 C 259.523 37.530,260.735 38.088,262.035 38.296 C 263.335 38.504,265.073 39.198,265.897 39.839 C 266.721 40.480,268.423 41.339,269.680 41.749 C 270.936 42.159,272.124 42.909,272.318 43.416 C 272.513 43.924,273.872 44.862,275.338 45.501 C 278.478 46.870,287.422 53.644,291.427 57.688 C 292.976 59.251,294.521 60.532,294.860 60.535 C 295.199 60.537,296.169 61.556,297.015 62.799 C 297.862 64.042,300.053 66.166,301.884 67.518 C 303.714 68.871,305.457 70.623,305.758 71.412 C 306.058 72.201,307.086 73.463,308.042 74.215 C 309.722 75.536,311.080 77.481,313.910 82.615 C 314.645 83.950,315.805 85.635,316.486 86.359 C 317.167 87.083,318.260 88.845,318.916 90.274 C 319.571 91.704,320.584 93.350,321.167 93.933 C 322.398 95.164,326.106 103.447,326.709 106.312 C 326.936 107.388,327.905 109.672,328.862 111.388 C 329.820 113.105,330.800 115.772,331.039 117.317 C 331.278 118.861,332.185 122.652,333.054 125.741 C 334.221 129.888,334.710 133.398,334.925 139.158 C 335.086 143.448,335.612 148.343,336.095 150.035 C 337.239 154.044,337.245 165.112,336.104 168.621 C 335.626 170.092,335.061 173.261,334.848 175.663 C 334.635 178.066,334.138 181.435,333.745 183.151 C 331.480 193.020,329.904 198.380,328.238 201.870 C 327.208 204.029,326.365 206.370,326.365 207.073 C 326.365 207.776,326.121 208.502,325.822 208.686 C 325.523 208.871,324.647 210.713,323.874 212.779 C 323.101 214.846,322.229 216.537,321.937 216.537 C 320.835 216.537,319.438 220.245,320.084 221.452 C 322.803 226.533,328.873 222.306,333.091 212.395 C 334.111 209.998,335.683 206.651,336.584 204.959 C 337.484 203.267,338.222 201.433,338.222 200.885 C 338.222 199.729,340.314 191.309,341.621 187.207 C 346.363 172.323,346.201 136.224,341.330 122.621 C 339.651 117.931,338.222 112.689,338.222 111.223 C 338.222 110.506,337.278 108.109,336.125 105.897 C 334.972 103.685,333.859 101.198,333.651 100.371 C 333.027 97.886,328.863 89.236,328.291 89.236 C 327.998 89.236,326.842 87.393,325.722 85.141 C 324.602 82.889,322.188 79.028,320.358 76.561 C 318.527 74.094,317.024 71.773,317.017 71.404 C 317.010 71.034,316.289 70.060,315.414 69.238 C 314.539 68.416,312.880 66.322,311.727 64.585 C 310.574 62.848,308.966 61.071,308.154 60.636 C 307.342 60.202,306.153 59.066,305.512 58.111 C 304.871 57.157,303.336 55.696,302.101 54.865 C 300.866 54.034,298.699 52.231,297.286 50.858 C 295.872 49.485,293.521 47.520,292.059 46.490 C 290.598 45.460,287.733 43.424,285.691 41.966 C 283.650 40.507,281.771 39.314,281.517 39.314 C 281.263 39.314,279.982 38.331,278.671 37.129 C 277.359 35.928,276.029 34.945,275.715 34.945 C 274.833 34.945,266.889 31.167,265.835 30.246 C 265.320 29.796,262.117 28.388,258.716 27.116 C 255.316 25.844,251.665 24.312,250.604 23.712 C 249.542 23.111,245.445 22.012,241.498 21.269 C 237.551 20.526,233.162 19.622,231.745 19.259 C 226.266 17.859,199.209 16.672,192.512 17.538 M220.976 19.386 C 222.824 19.751,227.005 20.473,230.265 20.988 C 233.526 21.504,237.860 22.190,239.896 22.514 C 241.933 22.838,244.060 23.520,244.623 24.029 C 245.186 24.539,247.732 25.499,250.280 26.163 C 255.056 27.406,259.844 29.467,260.528 30.573 C 260.741 30.918,261.324 31.201,261.822 31.201 C 262.320 31.201,263.989 31.763,265.529 32.449 C 267.070 33.136,269.665 34.286,271.295 35.005 C 272.925 35.724,274.961 36.968,275.819 37.768 C 276.677 38.569,278.815 39.942,280.571 40.819 C 282.326 41.697,284.130 42.858,284.580 43.399 C 285.029 43.940,286.952 45.416,288.854 46.678 C 293.469 49.741,311.812 67.676,313.287 70.567 C 313.930 71.826,314.865 73.014,315.365 73.206 C 315.865 73.398,317.306 75.315,318.567 77.467 C 319.827 79.618,321.236 81.672,321.697 82.031 C 322.764 82.861,327.613 92.116,327.613 93.321 C 327.613 93.820,327.890 94.228,328.229 94.228 C 328.945 94.228,333.229 102.483,333.229 103.863 C 333.229 105.072,335.123 110.672,335.669 111.076 C 336.194 111.466,337.451 115.483,338.206 119.189 C 338.949 122.836,340.127 127.285,340.766 128.861 C 343.650 135.973,342.173 183.099,338.878 189.135 C 338.580 189.680,338.137 191.720,337.894 193.668 C 337.651 195.615,337.204 197.362,336.901 197.549 C 336.597 197.736,336.349 198.435,336.349 199.101 C 336.349 199.767,336.137 200.312,335.878 200.312 C 335.250 200.312,333.988 203.228,333.449 205.923 C 333.210 207.116,332.532 208.939,331.943 209.974 C 331.353 211.010,330.551 212.839,330.162 214.041 C 329.452 216.228,325.609 220.905,324.521 220.905 C 322.670 220.905,323.001 219.467,326.774 211.115 C 327.579 209.334,328.237 207.553,328.237 207.155 C 328.237 206.758,328.788 205.659,329.461 204.714 C 330.134 203.769,330.964 201.900,331.305 200.562 C 331.646 199.223,332.322 196.564,332.807 194.653 C 333.291 192.742,334.006 190.584,334.395 189.858 C 334.783 189.132,335.101 187.560,335.101 186.364 C 335.101 185.169,335.440 184.079,335.853 183.941 C 336.325 183.783,336.897 180.806,337.392 175.933 C 337.825 171.666,338.490 165.465,338.871 162.154 C 339.363 157.863,339.374 154.367,338.909 149.985 C 338.549 146.604,337.894 140.386,337.453 136.167 C 337.012 131.949,336.336 128.298,335.952 128.055 C 335.568 127.812,335.100 126.490,334.914 125.117 C 334.727 123.744,333.973 120.515,333.238 117.941 C 332.503 115.367,331.658 112.304,331.361 111.134 C 331.064 109.965,329.988 107.297,328.970 105.206 C 327.952 103.115,326.192 99.158,325.059 96.412 C 323.925 93.666,322.387 90.809,321.640 90.063 C 320.893 89.318,319.685 87.472,318.954 85.963 C 318.223 84.453,316.643 82.115,315.443 80.767 C 314.243 79.418,313.259 78.034,313.255 77.691 C 313.244 76.603,309.052 71.681,301.840 64.285 C 295.221 57.499,292.458 54.932,287.594 51.053 C 281.719 46.368,280.582 45.554,279.906 45.554 C 279.503 45.554,278.387 44.734,277.427 43.732 C 276.468 42.730,274.988 41.736,274.139 41.523 C 273.290 41.310,271.501 40.445,270.163 39.601 C 268.826 38.756,267.445 38.066,267.095 38.066 C 266.745 38.066,266.459 37.820,266.459 37.521 C 266.459 36.949,259.211 33.932,253.354 32.065 C 251.466 31.464,249.641 30.639,249.298 30.232 C 248.487 29.270,244.128 28.102,238.883 27.442 C 236.587 27.154,234.128 26.607,233.419 26.227 C 232.710 25.848,230.236 25.381,227.922 25.190 C 225.607 25.000,222.828 24.449,221.747 23.966 C 218.953 22.720,190.562 22.691,188.750 23.933 C 188.073 24.397,185.694 24.954,183.463 25.170 C 181.232 25.387,178.284 25.978,176.911 26.483 C 175.538 26.989,173.379 27.415,172.112 27.430 C 170.845 27.445,169.658 27.701,169.474 27.998 C 169.290 28.296,167.908 28.678,166.403 28.848 C 164.763 29.033,163.133 29.691,162.333 30.491 C 161.599 31.225,160.507 31.825,159.906 31.826 C 158.786 31.826,153.488 33.675,149.984 35.288 C 148.902 35.786,147.730 36.193,147.379 36.193 C 147.029 36.193,145.901 36.900,144.875 37.764 C 143.848 38.628,141.460 40.020,139.570 40.856 C 137.679 41.692,135.888 42.811,135.591 43.342 C 135.294 43.872,134.080 44.811,132.892 45.427 C 128.744 47.579,125.215 50.080,122.058 53.109 C 120.308 54.788,118.714 56.161,118.516 56.162 C 118.179 56.162,115.101 59.234,106.256 68.395 C 104.233 70.490,101.683 73.579,100.589 75.260 C 99.494 76.940,97.874 79.116,96.988 80.095 C 96.101 81.075,94.845 83.116,94.195 84.633 C 93.545 86.149,92.610 87.545,92.117 87.734 C 91.625 87.923,90.895 88.970,90.494 90.060 C 90.094 91.151,89.247 93.167,88.612 94.540 C 87.977 95.913,86.974 98.159,86.384 99.532 C 85.794 100.905,84.954 102.240,84.517 102.498 C 84.079 102.757,83.115 105.004,82.374 107.491 C 81.632 109.978,80.626 113.071,80.138 114.365 C 79.650 115.659,79.251 117.423,79.251 118.285 C 79.251 119.147,78.860 120.002,78.382 120.186 C 77.862 120.385,77.336 121.944,77.074 124.066 C 76.832 126.017,76.393 127.909,76.096 128.270 C 73.523 131.412,73.530 179.394,76.105 182.496 C 76.418 182.874,76.869 184.645,77.106 186.432 C 77.343 188.219,77.923 190.002,78.394 190.393 C 78.865 190.784,79.251 192.081,79.251 193.274 C 79.251 194.467,79.646 196.328,80.129 197.410 C 80.612 198.491,81.586 201.291,82.294 203.631 C 83.001 205.971,84.291 208.730,85.160 209.763 C 86.029 210.796,86.920 212.391,87.140 213.309 C 87.360 214.226,88.062 216.018,88.700 217.292 C 90.249 220.384,90.169 220.905,88.144 220.905 C 85.747 220.905,83.228 217.543,80.943 211.294 C 79.927 208.514,78.606 205.679,78.007 204.992 C 76.908 203.732,75.952 201.046,75.785 198.752 C 75.735 198.066,74.950 195.142,74.041 192.255 C 73.131 189.368,72.387 185.850,72.387 184.438 C 72.387 183.025,72.002 181.315,71.532 180.638 C 69.545 177.776,68.495 161.556,69.190 144.462 C 69.413 138.973,69.911 136.395,71.483 132.605 C 71.910 131.576,72.444 128.908,72.670 126.677 C 72.896 124.446,73.311 122.059,73.593 121.373 C 73.876 120.686,74.574 118.159,75.146 115.757 C 77.004 107.943,77.297 107.063,78.281 106.344 C 78.815 105.954,79.251 105.230,79.251 104.736 C 79.251 104.242,79.501 103.571,79.806 103.245 C 80.111 102.919,80.807 101.085,81.353 99.169 C 81.899 97.254,83.053 94.923,83.918 93.989 C 84.783 93.055,85.491 92.149,85.491 91.974 C 85.491 90.539,90.759 81.086,92.020 80.260 C 92.891 79.689,93.604 78.733,93.604 78.134 C 93.604 77.535,94.867 75.727,96.412 74.115 C 97.956 72.503,99.220 70.910,99.220 70.575 C 99.220 68.049,122.686 45.554,125.321 45.554 C 125.599 45.554,126.930 44.553,128.280 43.330 C 129.629 42.107,132.067 40.417,133.697 39.575 C 135.328 38.733,136.661 37.799,136.661 37.499 C 136.661 37.199,137.715 36.530,139.002 36.014 C 140.289 35.497,145.205 33.220,149.926 30.954 C 154.648 28.687,159.011 26.833,159.623 26.833 C 161.111 26.833,166.902 24.769,168.022 23.840 C 168.897 23.114,171.187 22.656,182.527 20.943 C 185.616 20.476,188.846 19.803,189.704 19.447 C 191.788 18.583,216.669 18.534,220.976 19.386 M199.741 62.834 C 191.949 66.960,194.517 73.606,209.878 89.062 C 212.682 91.884,215.743 94.973,216.680 95.926 C 217.617 96.880,218.740 98.000,219.176 98.415 C 219.612 98.830,224.657 103.744,230.388 109.335 C 250.558 129.014,251.803 129.902,256.829 128.194 C 260.768 126.856,262.715 124.030,262.715 119.647 L 262.715 116.002 237.910 91.337 C 224.267 77.771,212.114 65.720,210.903 64.559 C 208.058 61.828,203.091 61.061,199.741 62.834 M206.985 65.038 C 211.594 67.731,214.550 70.459,234.923 90.825 C 261.340 117.233,262.547 118.964,258.190 124.212 C 256.045 126.796,252.731 127.623,251.669 125.839 C 251.395 125.378,250.328 124.485,249.298 123.854 C 247.804 122.938,242.664 118.209,238.461 113.885 C 238.128 113.541,237.060 112.491,236.088 111.550 C 232.739 108.309,229.328 104.970,228.705 104.326 C 228.362 103.971,221.956 97.552,214.469 90.062 C 206.983 82.571,200.173 75.730,199.337 74.859 C 196.494 71.900,197.661 64.899,200.996 64.899 C 201.609 64.899,202.284 64.618,202.496 64.275 C 203.095 63.306,204.398 63.528,206.985 65.038 M169.085 109.672 C 145.335 133.515,142.199 136.902,141.387 139.578 C 140.724 141.765,145.156 146.500,177.496 178.159 C 184.049 184.573,185.046 184.480,192.711 176.736 C 202.188 167.161,203.709 166.547,209.315 170.031 C 210.027 170.473,212.376 171.005,214.537 171.214 C 219.715 171.714,219.918 171.849,226.172 178.931 C 232.310 185.881,237.302 191.417,241.810 196.274 C 243.526 198.122,245.513 200.279,246.226 201.065 C 246.938 201.852,247.985 202.917,248.550 203.432 C 249.116 203.947,253.698 208.492,258.731 213.532 L 267.883 222.696 271.886 223.125 C 280.029 223.997,288.300 222.905,288.300 220.957 C 288.300 220.584,283.307 215.584,265.191 197.816 C 262.217 194.899,257.003 190.046,253.605 187.033 C 250.206 184.019,245.842 180.088,243.906 178.296 C 238.426 173.226,234.945 170.177,232.810 168.579 C 230.203 166.627,228.393 162.926,228.393 159.547 C 228.393 157.671,227.963 156.252,227.037 155.075 C 221.797 148.412,222.166 147.388,234.107 135.497 C 239.317 130.309,239.701 126.821,235.501 122.850 C 234.279 121.695,232.951 120.357,232.552 119.878 C 231.809 118.987,214.988 102.327,212.168 99.689 C 211.310 98.887,209.991 97.540,209.236 96.697 C 203.569 90.366,197.188 85.491,194.570 85.491 C 193.559 85.491,186.487 92.202,169.085 109.672 M197.320 88.799 C 198.451 89.588,203.588 94.376,208.736 99.438 C 213.885 104.500,220.484 110.975,223.401 113.825 C 238.632 128.708,238.476 128.162,229.937 136.668 C 220.713 145.856,220.211 147.120,223.401 153.098 C 224.799 155.717,225.274 157.440,225.275 159.895 C 225.279 165.044,225.871 165.752,239.250 176.599 C 240.731 177.800,243.091 179.906,244.494 181.279 C 245.897 182.652,248.750 185.320,250.834 187.207 C 252.917 189.095,255.250 191.317,256.016 192.146 C 256.783 192.974,258.224 194.378,259.219 195.266 C 260.214 196.154,262.460 198.310,264.211 200.057 C 265.962 201.805,268.180 203.715,269.139 204.303 C 270.099 204.890,271.185 206.032,271.553 206.840 C 271.922 207.649,273.578 209.188,275.234 210.261 C 276.890 211.334,278.412 212.739,278.617 213.383 C 278.821 214.028,280.241 215.581,281.772 216.835 C 286.164 220.434,284.636 222.153,277.046 222.153 C 271.260 222.153,270.980 221.980,260.359 211.856 C 250.933 202.872,249.851 201.792,242.122 193.649 C 232.124 183.118,231.117 181.971,230.038 179.883 C 229.487 178.817,228.174 177.332,227.120 176.581 C 226.066 175.831,224.514 174.124,223.671 172.788 C 222.322 170.651,221.848 170.359,219.734 170.359 C 215.787 170.359,210.929 169.208,209.227 167.870 C 205.766 165.147,199.835 166.440,195.853 170.786 C 188.689 178.604,184.475 180.882,182.215 178.159 C 181.788 177.644,181.106 177.223,180.701 177.223 C 180.044 177.223,178.506 175.847,174.415 171.600 C 173.729 170.888,172.114 169.445,170.827 168.395 C 169.540 167.345,168.487 166.112,168.487 165.655 C 168.487 165.199,167.298 164.027,165.844 163.051 C 164.391 162.074,162.860 160.591,162.443 159.753 C 162.025 158.915,160.620 157.507,159.320 156.624 C 158.019 155.741,156.162 153.837,155.192 152.392 C 154.221 150.948,153.046 149.766,152.580 149.766 C 152.114 149.766,151.080 148.892,150.281 147.825 C 149.483 146.757,147.613 144.702,146.125 143.258 C 142.785 140.017,142.695 137.711,145.831 135.734 C 146.927 135.043,148.139 133.775,148.524 132.917 C 148.909 132.059,150.750 130.106,152.615 128.577 C 154.480 127.048,156.006 125.436,156.006 124.996 C 156.006 124.557,157.088 123.514,158.410 122.679 C 159.732 121.845,161.766 119.946,162.929 118.459 C 164.093 116.973,165.292 115.652,165.593 115.524 C 166.686 115.059,176.438 105.111,177.171 103.714 C 177.585 102.926,178.594 102.025,179.414 101.713 C 180.235 101.402,181.973 99.773,183.277 98.094 C 184.581 96.415,186.447 94.575,187.423 94.005 C 188.400 93.435,189.347 92.406,189.527 91.717 C 189.770 90.786,194.118 87.416,195.136 87.369 C 195.207 87.366,196.189 88.009,197.320 88.799 M121.061 141.715 C 114.821 147.396,117.275 153.173,131.768 166.927 C 132.491 167.613,133.958 169.108,135.028 170.249 C 136.098 171.390,137.590 172.935,138.344 173.682 C 139.098 174.428,140.783 176.120,142.088 177.441 C 170.215 205.903,170.245 205.928,174.734 205.928 C 184.754 205.928,187.659 196.766,180.161 188.809 C 175.043 183.379,174.114 182.450,166.504 175.169 C 162.275 171.122,158.393 167.379,157.878 166.851 C 157.363 166.324,155.819 164.797,154.446 163.458 C 151.600 160.683,150.707 159.799,148.518 157.594 C 140.169 149.183,132.715 142.507,130.309 141.287 C 128.703 140.472,127.213 139.519,126.996 139.169 C 126.207 137.892,124.417 138.659,121.061 141.715 M129.723 143.167 C 131.041 143.999,135.212 147.720,138.991 151.435 C 142.770 155.151,146.201 158.519,146.615 158.921 C 147.030 159.322,149.845 162.130,152.871 165.161 C 155.896 168.191,161.701 173.840,165.769 177.713 C 174.893 186.398,174.087 185.590,177.732 189.704 C 188.103 201.408,179.205 210.643,168.175 199.622 C 166.802 198.250,158.518 190.009,149.766 181.308 C 131.441 163.090,133.220 164.867,130.421 161.982 C 129.220 160.743,126.943 158.401,125.361 156.776 C 119.314 150.564,118.240 147.003,121.469 143.868 C 124.216 141.200,126.323 141.021,129.723 143.167 M89.320 233.722 C 88.165 234.223,86.621 234.638,85.888 234.643 C 81.029 234.676,74.885 238.033,73.317 241.511 C 72.701 242.877,71.967 243.994,71.686 243.994 C 71.405 243.994,70.432 245.565,69.524 247.485 C 67.496 251.771,67.923 254.169,71.095 256.307 L 73.195 257.722 206.818 257.722 L 340.440 257.722 341.537 256.441 C 343.713 253.900,343.117 246.568,340.452 243.076 C 339.225 241.469,338.222 239.947,338.222 239.694 C 338.222 239.106,329.214 234.633,328.031 234.633 C 327.542 234.633,326.792 234.212,326.365 233.697 C 325.204 232.298,92.544 232.322,89.320 233.722 M43.370 270.152 C 32.180 272.629,25.740 283.231,25.619 299.376 L 25.585 303.900 206.864 303.900 L 388.144 303.900 388.144 298.594 C 388.144 294.479,387.863 292.764,386.895 290.959 C 386.209 289.678,385.647 288.242,385.647 287.769 C 385.647 286.532,383.555 280.811,383.102 280.811 C 382.893 280.811,381.370 279.125,379.718 277.065 C 378.065 275.005,375.424 272.548,373.848 271.605 L 370.983 269.891 208.112 269.814 C 118.534 269.772,44.399 269.924,43.370 270.152 " stroke="none" fill="#8e572e" fill-rule="evenodd"></path><path id="path3" d="M193.136 16.207 C 185.230 17.507,176.080 19.220,166.615 21.173 C 165.070 21.491,161.981 22.579,159.750 23.589 C 157.520 24.600,153.307 26.341,150.390 27.458 C 147.473 28.576,144.665 29.848,144.150 30.285 C 143.635 30.723,141.529 31.894,139.470 32.887 C 137.410 33.880,133.442 36.294,130.651 38.251 C 127.861 40.208,125.312 41.810,124.988 41.810 C 124.664 41.810,123.723 42.529,122.896 43.409 C 122.070 44.288,120.407 45.591,119.199 46.304 C 117.992 47.018,115.855 48.755,114.449 50.166 C 113.044 51.576,110.798 53.775,109.457 55.051 C 106.964 57.426,106.358 58.033,102.816 61.707 C 97.032 67.706,94.809 70.298,94.468 71.439 C 94.261 72.132,93.184 73.682,92.074 74.883 C 89.803 77.341,86.116 83.235,86.115 84.409 C 86.114 84.833,85.387 86.022,84.499 87.051 C 83.117 88.653,78.627 97.298,78.627 98.357 C 78.627 98.554,78.064 99.506,77.376 100.473 C 76.688 101.439,75.556 104.150,74.861 106.497 C 74.166 108.844,72.643 113.853,71.476 117.629 C 66.956 132.252,67.200 130.469,67.044 150.078 L 66.899 168.175 67.460 151.326 C 67.769 142.059,68.276 133.073,68.586 131.357 C 69.543 126.070,70.967 120.983,71.694 120.256 C 72.075 119.875,72.387 118.923,72.387 118.141 C 72.387 117.358,72.785 115.659,73.271 114.365 C 73.756 113.071,74.620 110.328,75.189 108.268 C 76.339 104.106,77.957 100.468,78.658 100.468 C 78.910 100.468,79.295 99.756,79.513 98.885 C 80.224 96.054,83.445 89.593,85.092 87.696 C 85.976 86.678,86.871 85.066,87.080 84.115 C 87.289 83.164,87.723 82.223,88.044 82.024 C 88.366 81.825,89.157 80.629,89.802 79.365 C 90.448 78.101,91.988 75.994,93.226 74.683 C 94.463 73.371,95.476 71.927,95.476 71.474 C 95.476 70.662,101.711 63.603,105.970 59.594 C 106.699 58.908,108.357 57.279,109.654 55.975 C 116.107 49.486,118.317 47.426,118.822 47.426 C 119.126 47.426,120.866 46.232,122.688 44.774 C 126.587 41.654,131.229 38.690,132.218 38.690 C 132.603 38.690,132.917 38.432,132.917 38.116 C 132.917 37.402,136.651 35.038,140.389 33.384 C 141.943 32.696,144.500 31.364,146.073 30.422 C 147.645 29.480,151.614 27.787,154.893 26.660 C 158.172 25.532,161.309 24.232,161.864 23.772 C 162.868 22.938,167.552 21.697,174.103 20.529 C 175.991 20.193,178.518 19.666,179.719 19.358 C 184.309 18.183,200.368 16.764,205.419 17.087 C 208.273 17.269,214.785 17.685,219.889 18.010 C 224.993 18.335,230.328 18.897,231.745 19.259 C 233.162 19.622,237.551 20.526,241.498 21.269 C 245.445 22.012,249.542 23.111,250.604 23.712 C 251.665 24.312,255.316 25.844,258.716 27.116 C 262.117 28.388,265.320 29.796,265.835 30.246 C 266.889 31.167,274.833 34.945,275.715 34.945 C 276.029 34.945,277.359 35.928,278.671 37.129 C 279.982 38.331,281.263 39.314,281.517 39.314 C 281.771 39.314,283.650 40.507,285.691 41.966 C 287.733 43.424,290.598 45.460,292.059 46.490 C 293.521 47.520,295.872 49.485,297.286 50.858 C 298.699 52.231,300.866 54.034,302.101 54.865 C 303.336 55.696,304.871 57.157,305.512 58.111 C 306.153 59.066,307.342 60.202,308.154 60.636 C 308.966 61.071,310.574 62.848,311.727 64.585 C 312.880 66.322,314.539 68.416,315.414 69.238 C 316.289 70.060,317.010 71.034,317.017 71.404 C 317.024 71.773,318.527 74.094,320.358 76.561 C 322.188 79.028,324.602 82.889,325.722 85.141 C 326.842 87.393,327.998 89.236,328.291 89.236 C 328.863 89.236,333.027 97.886,333.651 100.371 C 333.859 101.198,334.972 103.685,336.125 105.897 C 337.278 108.109,338.222 110.506,338.222 111.223 C 338.222 112.689,339.651 117.931,341.330 122.621 C 346.201 136.224,346.363 172.323,341.621 187.207 C 340.314 191.309,338.222 199.729,338.222 200.885 C 338.222 201.433,337.484 203.267,336.584 204.959 C 335.683 206.651,334.111 209.998,333.091 212.395 C 328.873 222.306,322.803 226.533,320.084 221.452 C 319.438 220.245,320.835 216.537,321.937 216.537 C 322.229 216.537,323.101 214.846,323.874 212.779 C 324.647 210.713,325.523 208.871,325.822 208.686 C 326.121 208.502,326.365 207.776,326.365 207.073 C 326.365 206.370,327.208 204.029,328.238 201.870 C 329.904 198.380,331.480 193.020,333.745 183.151 C 334.138 181.435,334.635 178.066,334.848 175.663 C 335.061 173.261,335.626 170.092,336.104 168.621 C 337.245 165.112,337.239 154.044,336.095 150.035 C 335.612 148.343,335.086 143.448,334.925 139.158 C 334.710 133.398,334.221 129.888,333.054 125.741 C 332.185 122.652,331.278 118.861,331.039 117.317 C 330.800 115.772,329.820 113.105,328.862 111.388 C 327.905 109.672,326.936 107.388,326.709 106.312 C 326.106 103.447,322.398 95.164,321.167 93.933 C 320.584 93.350,319.571 91.704,318.916 90.274 C 318.260 88.845,317.167 87.083,316.486 86.359 C 315.805 85.635,314.645 83.950,313.910 82.615 C 311.080 77.481,309.722 75.536,308.042 74.215 C 307.086 73.463,306.058 72.201,305.758 71.412 C 305.457 70.623,303.714 68.871,301.884 67.518 C 300.053 66.166,297.862 64.042,297.015 62.799 C 296.169 61.556,295.199 60.537,294.860 60.535 C 294.521 60.532,292.976 59.251,291.427 57.688 C 287.422 53.644,278.478 46.870,275.338 45.501 C 273.872 44.862,272.513 43.924,272.318 43.416 C 272.124 42.909,270.936 42.159,269.680 41.749 C 268.423 41.339,266.721 40.480,265.897 39.839 C 265.073 39.198,263.335 38.504,262.035 38.296 C 260.735 38.088,259.523 37.530,259.340 37.056 C 259.158 36.582,258.614 36.193,258.130 36.193 C 257.647 36.193,256.902 35.772,256.474 35.257 C 256.047 34.743,255.142 34.321,254.464 34.321 C 253.786 34.321,252.266 33.863,251.086 33.304 C 249.906 32.744,248.801 32.426,248.629 32.598 C 248.177 33.050,252.384 34.945,253.840 34.945 C 254.518 34.945,255.423 35.367,255.850 35.881 C 256.277 36.396,256.952 36.817,257.348 36.817 C 257.745 36.817,258.550 37.379,259.138 38.066 C 259.746 38.776,260.978 39.314,262.000 39.314 C 262.987 39.314,264.464 39.834,265.282 40.471 C 266.101 41.107,267.799 41.963,269.056 42.373 C 270.312 42.783,271.489 43.505,271.671 43.978 C 271.852 44.451,273.219 45.378,274.709 46.037 C 278.517 47.721,286.557 54.093,294.572 61.778 C 307.241 73.926,309.286 76.186,312.012 81.055 C 313.214 83.200,315.092 86.065,316.187 87.421 C 317.282 88.778,318.367 90.513,318.600 91.278 C 318.832 92.042,319.663 93.525,320.447 94.573 C 322.180 96.889,325.741 104.609,325.741 106.050 C 325.741 106.623,326.723 109.041,327.923 111.424 C 329.123 113.807,330.116 116.318,330.129 117.005 C 330.142 117.691,330.861 120.780,331.728 123.869 C 332.731 127.443,333.517 132.434,333.890 137.598 C 334.213 142.059,334.758 147.971,335.101 150.734 C 336.540 162.317,332.356 193.718,328.776 198.204 C 328.468 198.589,327.505 200.976,326.634 203.508 C 324.935 208.450,322.971 213.151,321.972 214.665 C 321.633 215.179,320.798 216.443,320.118 217.473 C 316.842 222.431,322.335 226.294,327.516 222.675 C 330.821 220.365,337.981 205.627,339.743 197.504 C 340.338 194.758,341.343 191.248,341.976 189.704 C 346.495 178.668,346.692 129.540,342.244 122.636 C 341.797 121.941,340.834 118.846,340.106 115.757 C 338.559 109.199,337.098 104.923,335.932 103.539 C 335.475 102.997,335.101 102.329,335.101 102.055 C 335.101 100.704,329.815 89.350,328.552 87.988 C 327.756 87.129,326.674 85.445,326.147 84.243 C 324.661 80.856,322.484 77.395,320.501 75.265 C 319.506 74.197,318.337 72.480,317.903 71.451 C 317.469 70.421,316.416 68.926,315.564 68.127 C 314.712 67.329,313.092 65.324,311.965 63.671 C 310.837 62.018,309.139 60.208,308.193 59.649 C 307.247 59.090,306.317 58.147,306.126 57.553 C 305.936 56.960,304.445 55.564,302.812 54.452 C 301.180 53.339,299.060 51.444,298.101 50.240 C 297.143 49.035,296.015 48.050,295.595 48.050 C 295.174 48.050,293.431 46.849,291.721 45.382 C 290.011 43.914,286.933 41.598,284.882 40.234 C 282.830 38.870,279.931 36.841,278.438 35.725 C 276.945 34.610,275.394 33.696,274.991 33.693 C 274.588 33.691,272.434 32.712,270.203 31.517 C 264.613 28.524,262.974 27.766,258.658 26.180 C 256.599 25.423,253.651 24.176,252.106 23.410 C 248.491 21.615,240.796 19.997,220.905 16.848 C 215.086 15.927,197.331 15.517,193.136 16.207 M195.008 25.549 C 191.919 25.791,187.005 26.477,184.087 27.074 C 181.170 27.671,177.239 28.449,175.351 28.803 C 173.463 29.156,171.112 29.877,170.127 30.404 C 167.983 31.550,161.136 33.686,159.584 33.693 C 157.816 33.700,141.089 42.172,136.777 45.243 C 134.610 46.787,132.568 48.050,132.239 48.050 C 131.910 48.050,130.454 49.103,129.003 50.390 C 127.552 51.677,125.382 53.418,124.181 54.258 C 121.567 56.087,118.274 59.132,111.662 65.835 C 103.991 73.610,103.821 73.807,101.715 77.411 C 100.622 79.281,99.073 81.513,98.272 82.371 C 97.471 83.229,95.784 85.897,94.522 88.300 C 93.260 90.702,91.851 93.094,91.390 93.615 C 90.930 94.135,89.539 97.084,88.301 100.167 C 87.062 103.250,85.651 106.474,85.166 107.332 C 82.004 112.923,80.162 119.117,79.228 127.301 C 78.816 130.919,78.019 134.324,77.185 136.037 C 75.619 139.256,75.182 175.900,76.692 177.410 C 77.070 177.788,77.379 178.849,77.379 179.768 C 77.379 180.687,77.765 181.759,78.237 182.151 C 78.830 182.643,78.998 183.727,78.780 185.659 C 78.521 187.957,78.646 188.456,79.482 188.456 C 80.209 188.456,80.499 189.022,80.499 190.439 C 80.499 192.620,81.436 195.969,82.763 198.536 C 83.234 199.447,83.619 200.490,83.619 200.855 C 83.619 201.219,84.446 202.820,85.457 204.414 C 86.467 206.007,87.479 208.154,87.705 209.184 C 88.265 211.733,90.889 217.576,91.698 218.076 C 92.910 218.825,92.408 221.466,90.862 222.479 C 89.462 223.396,88.475 223.380,84.757 222.379 C 83.511 222.044,81.123 218.205,81.123 216.538 C 81.123 215.891,80.865 215.203,80.549 215.008 C 79.485 214.350,76.799 208.982,76.375 206.666 C 76.143 205.402,75.573 203.814,75.106 203.137 C 74.640 202.460,74.259 201.399,74.259 200.779 C 74.259 200.160,73.431 198.013,72.419 196.008 C 70.608 192.421,70.445 191.596,68.565 176.599 C 68.199 173.682,67.640 170.874,67.322 170.359 C 66.933 169.727,66.861 170.134,67.101 171.607 C 67.468 173.865,68.181 179.393,69.253 188.292 C 69.707 192.062,70.373 194.322,71.753 196.767 C 72.788 198.601,73.635 200.648,73.635 201.316 C 73.635 201.984,74.016 203.084,74.482 203.761 C 74.949 204.438,75.527 206.066,75.768 207.379 C 76.210 209.790,78.020 213.525,79.627 215.338 C 80.106 215.880,80.499 216.642,80.499 217.033 C 80.499 219.159,82.732 222.162,84.983 223.062 C 91.681 225.742,95.065 221.904,91.463 215.712 C 90.629 214.278,89.230 211.190,88.355 208.849 C 87.479 206.509,86.196 203.798,85.503 202.825 C 84.810 201.851,84.243 200.458,84.243 199.728 C 84.243 198.998,83.822 198.239,83.307 198.042 C 82.780 197.839,82.371 196.910,82.371 195.914 C 82.371 194.941,82.090 193.972,81.747 193.760 C 81.404 193.548,81.123 192.127,81.123 190.603 C 81.123 189.079,80.842 187.832,80.499 187.832 C 80.156 187.832,79.875 186.602,79.875 185.100 C 79.875 183.433,79.510 182.065,78.939 181.591 C 78.424 181.164,78.003 180.023,78.003 179.056 C 78.003 178.088,77.722 177.123,77.379 176.911 C 76.986 176.668,76.755 169.615,76.755 157.813 L 76.755 139.100 78.315 136.170 C 79.219 134.471,79.880 132.188,79.888 130.738 C 79.922 123.858,82.941 111.993,85.479 108.766 C 86.172 107.885,86.739 106.765,86.739 106.278 C 86.739 105.790,87.272 104.214,87.923 102.774 C 88.574 101.334,89.567 99.044,90.130 97.685 C 90.693 96.326,91.705 94.700,92.379 94.073 C 93.052 93.445,93.604 92.397,93.604 91.744 C 93.604 91.091,93.889 90.381,94.237 90.166 C 94.585 89.951,95.465 88.601,96.193 87.165 C 96.920 85.730,98.354 83.594,99.379 82.420 C 100.404 81.245,101.602 79.420,102.041 78.364 C 102.973 76.124,105.513 73.212,113.261 65.498 C 122.309 56.490,123.119 55.751,125.741 54.120 C 127.114 53.266,128.918 51.832,129.750 50.933 C 130.582 50.034,131.565 49.280,131.934 49.259 C 132.303 49.238,134.571 47.838,136.973 46.149 C 139.376 44.459,143.448 42.078,146.022 40.856 C 148.596 39.635,152.246 37.834,154.134 36.855 C 156.022 35.876,159.899 34.478,162.750 33.749 C 165.601 33.019,169.111 31.892,170.550 31.243 C 171.989 30.595,175.133 29.720,177.535 29.300 C 179.938 28.880,183.448 28.127,185.335 27.626 C 189.913 26.411,213.114 25.846,220.281 26.774 C 231.969 28.289,234.908 28.780,235.571 29.331 C 235.953 29.647,237.793 30.321,239.661 30.828 C 241.529 31.334,244.022 32.042,245.200 32.400 C 246.379 32.759,247.472 32.923,247.630 32.765 C 247.788 32.608,247.385 32.313,246.735 32.110 C 246.085 31.907,244.353 31.198,242.885 30.535 C 241.417 29.872,239.437 29.329,238.486 29.329 C 237.534 29.329,236.488 29.064,236.162 28.740 C 235.836 28.416,233.463 27.861,230.889 27.507 C 228.315 27.153,224.945 26.606,223.401 26.292 C 219.449 25.488,201.715 25.024,195.008 25.549 M199.326 62.040 C 192.880 64.847,193.815 73.611,201.417 81.647 C 203.150 83.479,204.990 85.445,205.506 86.015 C 207.152 87.837,211.183 91.855,212.732 93.219 C 213.557 93.946,220.245 100.437,227.594 107.644 C 247.022 126.696,247.787 127.393,250.766 128.710 C 258.748 132.242,267.130 122.877,262.638 115.445 C 261.635 113.786,224.608 76.554,212.537 65.067 C 208.303 61.038,203.929 60.036,199.326 62.040 M210.903 64.559 C 212.114 65.720,224.267 77.771,237.910 91.337 L 262.715 116.002 262.715 119.647 C 262.715 124.030,260.768 126.856,256.829 128.194 C 251.803 129.902,250.558 129.014,230.388 109.335 C 224.657 103.744,219.612 98.830,219.176 98.415 C 218.740 98.000,217.617 96.880,216.680 95.926 C 215.743 94.973,212.682 91.884,209.878 89.062 C 196.814 75.916,193.908 70.957,196.454 66.147 C 199.069 61.204,206.552 60.382,210.903 64.559 M192.824 85.211 C 189.977 87.205,152.989 124.017,146.235 131.577 C 138.927 139.758,138.891 140.411,145.366 147.260 C 147.271 149.275,149.542 151.716,150.413 152.685 C 151.283 153.654,153.108 155.514,154.469 156.820 C 155.829 158.125,157.519 159.810,158.223 160.564 C 158.928 161.318,160.332 162.715,161.343 163.670 C 163.527 165.731,165.127 167.326,168.310 170.614 C 169.608 171.956,171.362 173.641,172.206 174.359 C 173.050 175.076,175.016 176.954,176.574 178.531 C 183.453 185.495,185.376 185.299,193.975 176.755 C 202.968 167.820,202.942 167.832,207.845 170.283 C 210.467 171.593,212.658 172.231,214.535 172.231 C 218.363 172.231,220.452 173.686,226.400 180.497 C 231.178 185.969,233.547 188.562,241.077 196.568 C 242.853 198.456,244.727 200.659,245.242 201.465 C 245.757 202.271,246.799 203.172,247.559 203.469 C 248.318 203.765,249.651 205.134,250.519 206.510 C 251.388 207.887,252.944 209.450,253.977 209.984 C 255.010 210.518,256.594 212.071,257.496 213.435 C 258.399 214.798,260.079 216.496,261.230 217.207 C 262.380 217.918,263.803 219.314,264.390 220.308 C 266.071 223.154,269.168 224.025,277.611 224.025 C 290.906 224.025,291.736 222.676,283.463 214.509 C 270.431 201.643,255.612 187.521,248.674 181.355 C 244.555 177.694,240.062 173.633,238.690 172.329 C 237.317 171.024,235.416 169.476,234.465 168.888 C 231.274 166.912,229.017 163.051,229.017 159.565 C 229.017 157.027,228.599 155.817,226.765 153.055 C 223.278 147.801,223.606 147.103,234.747 136.051 C 240.223 130.619,240.472 126.567,235.630 121.685 C 212.341 98.201,201.411 87.625,199.331 86.557 C 198.276 86.016,197.048 85.134,196.602 84.597 C 195.570 83.353,195.446 83.374,192.824 85.211 M198.608 87.125 C 201.065 88.646,206.041 93.127,209.236 96.697 C 209.991 97.540,211.310 98.887,212.168 99.689 C 214.988 102.327,231.809 118.987,232.552 119.878 C 232.951 120.357,234.279 121.695,235.501 122.850 C 239.701 126.821,239.317 130.309,234.107 135.497 C 222.166 147.388,221.797 148.412,227.037 155.075 C 227.963 156.252,228.393 157.671,228.393 159.547 C 228.393 162.926,230.203 166.627,232.810 168.579 C 234.945 170.177,238.426 173.226,243.906 178.296 C 245.842 180.088,250.206 184.019,253.605 187.033 C 257.003 190.046,262.217 194.899,265.191 197.816 C 283.307 215.584,288.300 220.584,288.300 220.957 C 288.300 222.905,280.029 223.997,271.886 223.125 L 267.883 222.696 258.731 213.532 C 253.698 208.492,249.116 203.947,248.550 203.432 C 247.985 202.917,246.938 201.852,246.226 201.065 C 245.513 200.279,243.526 198.122,241.810 196.274 C 237.302 191.417,232.310 185.881,226.172 178.931 C 219.918 171.849,219.715 171.714,214.537 171.214 C 212.376 171.005,210.027 170.473,209.315 170.031 C 203.709 166.547,202.188 167.161,192.711 176.736 C 185.046 184.480,184.049 184.573,177.496 178.159 C 145.156 146.500,140.724 141.765,141.387 139.578 C 142.199 136.902,145.335 133.515,169.085 109.672 C 195.212 83.443,194.069 84.315,198.608 87.125 M120.281 141.228 C 116.163 144.969,115.251 151.078,118.448 153.497 C 118.684 153.676,119.999 155.226,121.370 156.942 C 123.577 159.705,134.434 171.072,138.058 174.415 C 138.802 175.101,140.407 176.706,141.625 177.982 C 159.091 196.281,170.145 206.552,172.372 206.552 C 173.026 206.552,174.127 206.855,174.819 207.225 C 178.475 209.182,185.032 203.574,185.004 198.514 C 184.970 192.291,183.546 190.554,158.711 166.440 C 158.081 165.829,156.520 164.284,155.241 163.008 C 143.329 151.115,133.593 142.106,131.451 140.995 C 130.027 140.256,128.637 139.260,128.362 138.781 C 127.259 136.855,124.009 137.839,120.281 141.228 M126.996 139.169 C 127.213 139.519,128.703 140.472,130.309 141.287 C 132.715 142.507,140.169 149.183,148.518 157.594 C 150.707 159.799,151.600 160.683,154.446 163.458 C 155.819 164.797,157.363 166.324,157.878 166.851 C 158.393 167.379,162.275 171.122,166.504 175.169 C 174.114 182.450,175.043 183.379,180.161 188.809 C 187.659 196.766,184.754 205.928,174.734 205.928 C 170.245 205.928,170.215 205.903,142.088 177.441 C 140.783 176.120,139.098 174.428,138.344 173.682 C 137.590 172.935,136.098 171.390,135.028 170.249 C 133.958 169.108,132.491 167.613,131.768 166.927 C 122.695 158.317,117.629 151.370,117.629 147.539 C 117.629 143.526,125.398 136.584,126.996 139.169 M88.924 232.557 C 88.237 232.708,86.973 233.063,86.115 233.347 C 85.257 233.630,82.871 234.374,80.811 235.000 C 72.691 237.469,65.402 248.939,68.341 254.623 C 70.417 258.636,59.640 258.346,207.049 258.346 L 341.148 258.346 342.337 257.033 C 343.301 255.968,343.526 254.760,343.526 250.637 L 343.526 245.554 340.482 241.608 C 338.808 239.438,336.843 237.433,336.114 237.153 C 335.386 236.873,332.659 235.630,330.056 234.390 L 325.322 232.137 207.747 232.210 C 143.081 232.249,89.610 232.406,88.924 232.557 M326.365 233.697 C 326.792 234.212,327.542 234.633,328.031 234.633 C 329.214 234.633,338.222 239.106,338.222 239.694 C 338.222 239.947,339.225 241.469,340.452 243.076 C 343.117 246.568,343.713 253.900,341.537 256.441 L 340.440 257.722 206.818 257.722 L 73.195 257.722 71.095 256.307 C 67.923 254.169,67.496 251.771,69.524 247.485 C 70.432 245.565,71.405 243.994,71.686 243.994 C 71.967 243.994,72.701 242.877,73.317 241.511 C 74.885 238.033,81.029 234.676,85.888 234.643 C 86.621 234.638,88.165 234.223,89.320 233.722 C 92.544 232.322,325.204 232.298,326.365 233.697 M60.530 268.921 C 38.996 269.337,38.868 269.370,32.139 276.199 C 26.893 281.523,22.632 296.921,24.647 303.271 C 25.046 304.526,25.153 304.526,206.751 304.369 L 388.456 304.212 388.638 298.618 C 388.763 294.779,388.544 292.430,387.941 291.130 C 387.457 290.088,386.413 287.270,385.620 284.867 C 384.777 282.313,383.438 279.758,382.396 278.715 C 381.416 277.733,379.902 275.997,379.032 274.855 C 378.162 273.714,375.714 271.850,373.592 270.712 L 369.735 268.643 224.337 268.604 C 144.368 268.583,70.655 268.726,60.530 268.921 M373.848 271.605 C 375.424 272.548,378.065 275.005,379.718 277.065 C 381.370 279.125,382.893 280.811,383.102 280.811 C 383.555 280.811,385.647 286.532,385.647 287.769 C 385.647 288.242,386.209 289.678,386.895 290.959 C 387.863 292.764,388.144 294.479,388.144 298.594 L 388.144 303.900 206.864 303.900 L 25.585 303.900 25.619 299.376 C 25.740 283.231,32.180 272.629,43.370 270.152 C 44.399 269.924,118.534 269.772,208.112 269.814 L 370.983 269.891 373.848 271.605 " stroke="none" fill="#c0a08a" fill-rule="evenodd"></path></g></svg>